<svg
	version="1.1"
	id="Layer_1"
	xmlns="http://www.w3.org/2000/svg"
	xmlns:xlink="http://www.w3.org/1999/xlink"
	x="0px"
	y="0px"
	width="100%"
	viewBox="0 0 1957 1958"
	xml:space="preserve"
>
	<path
		fill="currentColor"
		opacity="1.000000"
		stroke="none"
		d="
M1017.501526,715.601318 
	C996.790222,673.753296 966.917603,641.435425 923.080811,624.729248 
	C877.596619,607.395264 831.692139,607.415771 788.293762,631.111572 
	C743.989502,655.302002 721.687744,694.331665 718.882263,744.538330 
	C717.872192,762.614136 719.000977,780.493347 725.726379,797.614197 
	C732.951599,816.007446 746.118042,827.752014 764.821045,834.110718 
	C787.791809,841.920288 810.566101,850.321838 833.299072,858.805725 
	C838.384521,860.703552 843.043152,863.845886 847.730957,866.690979 
	C868.908081,879.544006 877.249756,898.869263 875.451477,922.981506 
	C872.871521,957.574402 850.633179,976.521484 814.276123,978.100342 
	C783.402710,979.440979 759.355042,966.393250 737.305969,946.996399 
	C727.431396,938.309448 717.006287,930.249023 707.110840,921.584778 
	C678.174805,896.249023 635.506165,901.632507 610.975159,917.612183 
	C588.966492,931.948853 574.590027,952.448486 564.053040,975.930847 
	C553.617676,999.186951 549.128662,1023.843689 548.151855,1049.168945 
	C546.460754,1093.013794 554.288208,1135.022339 573.183899,1174.767944 
	C595.278015,1221.241333 627.402588,1259.633545 668.028992,1290.922729 
	C725.308289,1335.037598 790.445068,1360.880859 861.356995,1372.976929 
	C889.997437,1377.862427 918.898682,1379.987915 947.909729,1379.708740 
	C1034.703613,1378.873657 1115.387573,1356.602295 1188.431274,1309.107056 
	C1236.381348,1277.928345 1275.630127,1238.129395 1300.093750,1185.921021 
	C1333.437134,1114.762085 1333.247192,1044.193237 1288.963379,977.269531 
	C1255.932007,927.351379 1207.959961,900.891113 1148.437866,895.926453 
	C1114.103760,893.062805 1080.484985,896.770203 1049.002808,911.818726 
	C1017.824768,926.721802 994.424988,949.161072 986.688171,984.022766 
	C979.307312,1017.280029 983.012573,1049.048584 1004.903748,1076.791992 
	C1018.494812,1094.016479 1036.171631,1103.396362 1058.469971,1102.983276 
	C1077.805176,1102.625000 1088.315552,1092.278198 1088.040527,1073.031250 
	C1087.871826,1061.236572 1086.615601,1049.452148 1085.707275,1037.674072 
	C1082.973022,1002.221375 1110.469238,976.411621 1145.769409,980.337341 
	C1176.094727,983.709839 1199.737793,1010.305847 1205.875977,1037.117432 
	C1214.965210,1076.818848 1202.358154,1109.668091 1171.783936,1135.261963 
	C1138.453735,1163.162720 1099.168335,1174.169556 1056.028198,1171.320190 
	C1021.204285,1169.020142 990.693604,1156.173706 965.581970,1131.730469 
	C941.342957,1108.136719 926.693298,1079.077026 920.162415,1046.142578 
	C903.224182,960.724304 940.433594,880.607178 1017.502258,835.682800 
	C1053.720459,814.570801 1092.923950,802.339844 1134.492554,798.144653 
	C1153.673462,796.208862 1173.032959,795.455566 1192.321289,795.285400 
	C1241.315186,794.853149 1290.324585,795.642090 1339.308472,794.807495 
	C1376.624512,794.171692 1412.823120,787.213684 1445.911987,768.718567 
	C1469.320557,755.634399 1488.285156,738.260071 1498.244629,712.520569 
	C1513.193115,673.887634 1502.106567,630.925964 1470.550537,606.018188 
	C1456.182007,594.676880 1440.020630,590.140320 1421.863525,593.862793 
	C1413.196777,595.639648 1407.058350,600.424194 1404.355469,609.085327 
	C1401.531616,618.134094 1399.066284,627.310242 1395.853760,636.217773 
	C1392.764893,644.782593 1389.245850,653.230164 1385.325562,661.447693 
	C1380.463379,671.639099 1371.765625,677.139648 1360.895386,679.401550 
	C1344.000244,682.917175 1327.114380,683.094116 1310.457397,678.293396 
	C1284.047485,670.681763 1268.093384,649.267029 1267.160156,620.721252 
	C1265.798096,579.051453 1287.068970,548.539062 1328.507812,532.981995 
	C1353.590942,523.565247 1379.703857,521.450134 1406.193848,522.814331 
	C1455.878662,525.373108 1499.882202,542.151733 1536.098389,576.793030 
	C1565.740356,605.145996 1583.628662,640.119934 1588.872681,680.772034 
	C1599.427979,762.599976 1565.986572,824.616821 1500.233276,870.846863 
	C1465.024658,895.601440 1424.997070,909.086121 1382.760254,915.782959 
	C1365.865967,918.461670 1348.679443,919.367249 1331.598267,920.736694 
	C1328.034180,921.022400 1326.094116,922.168884 1325.221558,925.789795 
	C1329.137817,928.626587 1333.289185,931.356873 1337.135010,934.465210 
	C1358.730591,951.919678 1372.362549,975.011047 1382.953247,1000.122253 
	C1400.205811,1041.029541 1406.166382,1083.913940 1405.071777,1128.042603 
	C1403.901855,1175.205078 1393.053955,1219.976807 1372.289917,1262.307861 
	C1354.106323,1299.377930 1330.485107,1332.669434 1301.802856,1362.355957 
	C1240.781250,1425.514160 1166.128906,1465.553101 1082.903809,1490.805908 
	C1033.079346,1505.924194 982.003357,1513.516724 929.972839,1515.278687 
	C867.816895,1517.383301 806.534424,1511.723389 746.528809,1495.017456 
	C675.235474,1475.168945 609.830811,1443.610107 553.706909,1394.695923 
	C497.035248,1345.304443 456.397888,1285.267578 438.808899,1211.571167 
	C420.994202,1136.928833 424.583099,1063.079956 456.610107,992.623047 
	C492.304352,914.098572 553.401672,863.354309 635.158997,837.023743 
	C642.903992,834.529358 650.785706,832.459656 659.101318,830.048584 
	C658.013184,827.454285 656.939636,824.937988 655.899353,822.408020 
	C645.858765,797.987488 641.371033,772.266357 638.472717,746.237610 
	C635.249939,717.295593 634.867371,688.339722 641.500122,659.766479 
	C655.679443,598.683655 691.230713,553.848877 746.230469,524.425049 
	C789.751221,501.142334 836.793518,493.042969 885.680298,494.092590 
	C918.957397,494.807037 951.358032,500.130493 981.560120,514.864746 
	C1016.142578,531.735962 1043.411621,556.043274 1056.286743,593.413452 
	C1066.381958,622.715332 1067.604980,652.542419 1056.740356,682.008606 
	C1051.309937,696.736450 1042.551636,709.179749 1027.251221,715.505066 
	C1025.108521,716.390930 1022.866577,717.174438 1020.595581,717.541321 
	C1019.737671,717.679871 1018.667419,716.503662 1017.501526,715.601318 
z"
	/>
    <style>
        path { fill: #000; }
        @media (prefers-color-scheme: dark) {
            path { fill: #FFF; }
        }
    </style>
</svg>
