<svg xmlns="http://www.w3.org/2000/svg" viewBox="0 0 100 100" width="100%" height="100%">
  <line x1="50" y1="0" x2="50" y2="32" stroke="#333333" stroke-width="1.5" stroke-linecap="round"/>
  <path d="M46 32 C46 30, 54 30, 54 32 L53 38 L47 38 Z" fill="#currentColor"/>
  <rect x="45" y="38" width="10" height="1" fill="#currentColor" rx="0.5"/>
  <path d="M44 72 C44 76, 56 76, 56 72 Z" fill="#EAEAEA" opacity="0.9"/>
  <path d="M38 72 C40 30, 60 30, 62 72 C58 71, 42 71, 38 72 Z" fill="#currentColor"/>
  <path d="M18 50 C22 30, 78 30, 82 50 C72 49, 28 49, 18 52 Z" fill="#currentColor"/>
  <path d="M28 62 C32 30, 68 30, 72 62 C64 61, 36 61, 28 62 Z" fill="#currentColor"/>
  <ellipse cx="50" cy="76" rx="12" ry="4" fill="#FFEAA7" opacity="0.4" filter="blur(1px)"/>
</svg>
